<?xml version="1.0" encoding="UTF-8"?>
<svg id="OBJECTS" xmlns="http://www.w3.org/2000/svg" viewBox="0 0 25 25">
  <defs>
    <style>
      .cls-1 {
        fill-rule: evenodd;
      }
    </style>
  </defs>
  <path class="cls-1" d="M25,12.18c0,6.72-5.49,12.18-12.27,12.18-2.15,0-4.17-.55-5.93-1.52L0,25l2.21-6.53c-1.12-1.84-1.76-3.99-1.76-6.29C.45,5.45,5.95,0,12.73,0s12.27,5.45,12.27,12.18h0ZM12.73,1.94C7.04,1.94,2.41,6.53,2.41,12.18c0,2.24,.73,4.31,1.97,6l-1.29,3.8,3.96-1.26c1.63,1.07,3.58,1.69,5.68,1.69,5.69,0,10.32-4.59,10.32-10.24S18.42,1.94,12.73,1.94h0Zm6.2,13.04c-.08-.12-.28-.2-.58-.35-.3-.15-1.78-.87-2.06-.97-.28-.1-.48-.15-.68,.15-.2,.3-.78,.97-.95,1.17-.18,.2-.35,.22-.65,.07-.3-.15-1.27-.47-2.42-1.48-.89-.79-1.5-1.77-1.67-2.07-.17-.3-.02-.46,.13-.61,.14-.13,.3-.35,.45-.52,.15-.18,.2-.3,.3-.5,.1-.2,.05-.37-.03-.52-.07-.15-.68-1.62-.93-2.22-.25-.6-.5-.57-.68-.57s-.5,.05-.5,.05c0,0-.6,.07-.88,.37-.28,.3-1.05,1.02-1.05,2.49s1.08,2.89,1.23,3.09c.15,.2,2.08,3.31,5.14,4.51,3.06,1.19,3.06,.8,3.61,.75,.55-.05,1.78-.72,2.03-1.42,.25-.7,.25-1.3,.18-1.42h0Zm0,0" fill="#FFA500"/>
</svg>